# xmcd
#
# Track frame offsets:
#	150
#	15952
#	34400
#	49812
#	64482
#	77360
#	93502
#	110547
#	127730
#	141185
#	157607
#	174840
#	193805
#
# Disc length: 2811 seconds
#
# Revision: 1
# Processed by: cddbd v1.4PL0 Copyright (c) Steve Scherf et al.
# Submitted via: audiograbber 1.81.02
#
DISCID=9d0af90d
DTITLE=Forró Siriguela - Promocional
DYEAR=2002
DGENRE=Country
TTITLE0=É loucura, é amor
TTITLE1=Amor Badido
TTITLE2=Te conquistar
TTITLE3=Inteirinha
TTITLE4=Adeus, bye, bye
TTITLE5=Bug, bug, bye, bye
TTITLE6=Mordida de amor
TTITLE7=Nosso caso
TTITLE8=Vou te esquecer
TTITLE9=Volta pra mim
TTITLE10=Colírio
TTITLE11=Isso é amor
TTITLE12=Vou te amar
EXTD=Feita por d3x73r
EXTT0=
EXTT1=
EXTT2=
EXTT3=
EXTT4=
EXTT5=
EXTT6=
EXTT7=
EXTT8=
EXTT9=
EXTT10=
EXTT11=
EXTT12=
PLAYORDER=
